RobotoFlexCondensed-Light.ufo
<glyph name="dollar" format="2">
  <advance width="1095"/>
  <unicode hex="0024"/>
  <outline>
    <contour>
      <point x="132.66764705880666" y="450.238562091485" type="curve" smooth="yes"/>
      <point x="132.66764705880666" y="463.51372549017503" type="line"/>
      <point x="251.97026143791834" y="463.51372549017503" type="line"/>
      <point x="251.97026143791834" y="450.238562091485" type="line" smooth="yes"/>
      <point x="252" y="227"/>
      <point x="368" y="121"/>
      <point x="570.5326797385733" y="121.44477124184833" type="curve" smooth="yes"/>
      <point x="773" y="121"/>
      <point x="882" y="239"/>
      <point x="881.5281045751817" y="407.613398692795" type="curve" smooth="yes"/>
      <point x="881" y="570"/>
      <point x="833" y="614"/>
      <point x="552.914052287555" y="687.39934640524" type="curve" smooth="yes"/>
      <point x="296" y="755"/>
      <point x="150" y="840"/>
      <point x="149.97679738559" y="1062.1542483660116" type="curve" smooth="yes"/>
      <point x="150" y="1295"/>
      <point x="311" y="1453"/>
      <point x="561.1075163398833" y="1453.44967320262" type="curve" smooth="yes"/>
      <point x="812" y="1453"/>
      <point x="973" y="1273"/>
      <point x="972.7718954248184" y="1018.137254901965" type="curve" smooth="yes"/>
      <point x="972.7718954248184" y="1004.862091503275" type="line"/>
      <point x="852.260784313755" y="1004.862091503275" type="line"/>
      <point x="852.260784313755" y="1018.137254901965" type="line" smooth="yes"/>
      <point x="852" y="1212"/>
      <point x="753" y="1341"/>
      <point x="562.17418300655" y="1340.9310457516017" type="curve" smooth="yes"/>
      <point x="366" y="1341"/>
      <point x="269" y="1243"/>
      <point x="269.28758169934497" y="1077.087581699345" type="curve" smooth="yes"/>
      <point x="269" y="910"/>
      <point x="339" y="886"/>
      <point x="620.7516339869001" y="803.6016339869" type="curve" smooth="yes"/>
      <point x="879" y="724"/>
      <point x="1000" y="621"/>
      <point x="1000.039215686245" y="433.25882352940334" type="curve" smooth="yes"/>
      <point x="1000" y="168"/>
      <point x="834" y="8"/>
      <point x="570.5326797385733" y="7.650980392139999" type="curve" smooth="yes"/>
      <point x="305" y="8"/>
      <point x="133" y="165"/>
    </contour>
    <contour>
      <point x="521.4820261438133" y="-124.49673202612834" type="line"/>
      <point x="521.4820261438133" y="689.7450980392284" type="line"/>
      <point x="616.32549019607" y="689.7450980392284" type="line"/>
      <point x="616.32549019607" y="89.66993464053833" type="line"/>
      <point x="615.9833333333333" y="79.66993464053833" type="line"/>
      <point x="615.9833333333333" y="-124.49673202612834" type="line"/>
    </contour>
    <contour>
      <point x="520.8728758169583" y="689.7450980392284" type="line"/>
      <point x="520.8728758169583" y="1353.5784313725617" type="line"/>
      <point x="520.4983660130999" y="1363.5784313725617" type="line"/>
      <point x="520.4983660130999" y="1631.5032679738717" type="line"/>
      <point x="614.99967320262" y="1631.5032679738717" type="line"/>
      <point x="614.99967320262" y="689.7450980392284" type="line"/>
    </contour>
  </outline>
</glyph>
<glyph name="A" format="2">
  <advance width="1068"/>
  <unicode hex="0041"/>
  <outline>
    <contour>
      <point x="0.0" y="0.0" type="line"/>
      <point x="453.87810457518174" y="1466.0" type="line"/>
      <point x="613.75032679738" y="1466.0" type="line"/>
      <point x="1068.4281045751816" y="0.0" type="line"/>
      <point x="948.7339869280934" y="0.0" type="line"/>
      <point x="583.75130718952" y="1197.3156862745266" type="line" smooth="yes"/>
      <point x="565" y="1254"/>
      <point x="549" y="1304"/>
      <point x="536.188888888865" y="1354.7973856208882" type="curve"/>
      <point x="527.338562091485" y="1354.7973856208882" type="line"/>
      <point x="514" y="1304"/>
      <point x="497" y="1254"/>
      <point x="478.1346405228533" y="1197.3156862745266" type="curve" smooth="yes"/>
      <point x="112.71862745094667" y="0.0" type="line"/>
    </contour>
    <contour>
      <point x="182.45359477125166" y="409.54934640524" type="line"/>
      <point x="211.23006535946166" y="509.12516339869" type="line"/>
      <point x="853.1477124182683" y="509.12516339869" type="line"/>
      <point x="881.4160130719067" y="409.54934640524" type="line"/>
    </contour>
  </outline>
</glyph>
<glyph name="D" format="2">
  <advance width="1174"/>
  <unicode hex="0044"/>
  <outline>
    <contour>
      <point x="170.0" y="0.0" type="line"/>
      <point x="170.0" y="1456.0" type="line"/>
      <point x="500.14179084970834" y="1456.0" type="line" smooth="yes"/>
      <point x="828" y="1456"/>
      <point x="1059" y="1229"/>
      <point x="1058.6059934640466" y="763.1825490195783" type="curve" smooth="yes"/>
      <point x="1058.6059934640466" y="692.8174509804217" type="line" smooth="yes"/>
      <point x="1059" y="227"/>
      <point x="828" y="0"/>
      <point x="500.14179084970834" y="0.0" type="curve" smooth="yes"/>
    </contour>
    <contour>
      <point x="285.19896732023335" y="102.49381699345" type="line"/>
      <point x="500.14179084970834" y="102.49381699345" type="line" smooth="yes"/>
      <point x="772" y="102"/>
      <point x="942" y="284"/>
      <point x="941.9373594771466" y="692.8174509804217" type="curve" smooth="yes"/>
      <point x="941.9373594771466" y="763.1825490195783" type="line" smooth="yes"/>
      <point x="942" y="1172"/>
      <point x="772" y="1354"/>
      <point x="500.14179084970834" y="1353.50618300655" type="curve" smooth="yes"/>
      <point x="285.19896732023335" y="1353.50618300655" type="line"/>
    </contour>
  </outline>
</glyph>
<glyph name="c" format="2">
  <advance width="834"/>
  <unicode hex="0063"/>
  <outline>
    <contour>
      <point x="85.0" y="522.4285714285714" type="curve" smooth="yes"/>
      <point x="85.0" y="554.4285714285714" type="line" smooth="yes"/>
      <point x="85" y="909"/>
      <point x="238" y="1107"/>
      <point x="490.65751633988333" y="1106.857142857143" type="curve" smooth="yes"/>
      <point x="725" y="1107"/>
      <point x="842" y="942"/>
      <point x="841.8049019607716" y="734.5877684407152" type="curve" smooth="yes"/>
      <point x="841.8049019607716" y="729.5877684407152" type="line"/>
      <point x="734.711764705895" y="729.5877684407152" type="line"/>
      <point x="734.711764705895" y="734.5877684407152" type="line" smooth="yes"/>
      <point x="735" y="886"/>
      <point x="673" y="1005"/>
      <point x="489.59084967321667" y="1005.0479925303596" type="curve" smooth="yes"/>
      <point x="294" y="1005"/>
      <point x="199" y="848"/>
      <point x="198.50980392154332" y="586.4285714285714" type="curve" smooth="yes"/>
      <point x="198.50980392154332" y="490.42857142857144" type="line" smooth="yes"/>
      <point x="199" y="228"/>
      <point x="294" y="71"/>
      <point x="479.99084967321664" y="70.74248366011668" type="curve" smooth="yes"/>
      <point x="666" y="71"/>
      <point x="735" y="191"/>
      <point x="734.711764705895" y="342.26937441642764" type="curve" smooth="yes"/>
      <point x="734.711764705895" y="347.26937441642764" type="line"/>
      <point x="841.8049019607716" y="347.26937441642764" type="line"/>
      <point x="841.8049019607716" y="342.26937441642764" type="line" smooth="yes"/>
      <point x="842" y="135"/>
      <point x="728" y="-30"/>
      <point x="482.12418300654997" y="-30.0" type="curve" smooth="yes"/>
      <point x="241" y="-30"/>
      <point x="85" y="167"/>
    </contour>
  </outline>
</glyph>
<glyph name="degree" format="2">
  <advance width="765"/>
  <unicode hex="00B0"/>
  <outline>
    <contour>
      <point x="156.0" y="1232.7666666666667" type="curve" smooth="yes"/>
      <point x="156" y="1376"/>
      <point x="250" y="1477"/>
      <point x="385.28333333333336" y="1477.0" type="curve" smooth="yes"/>
      <point x="518" y="1477"/>
      <point x="611" y="1376"/>
      <point x="610.5666666666667" y="1232.7666666666667" type="curve" smooth="yes"/>
      <point x="611" y="1091"/>
      <point x="518" y="992"/>
      <point x="385.28333333333336" y="991.5333333333333" type="curve" smooth="yes"/>
      <point x="250" y="992"/>
      <point x="156" y="1091"/>
    </contour>
    <contour>
      <point x="251.33333333333334" y="1232.7666666666667" type="curve" smooth="yes"/>
      <point x="251" y="1150"/>
      <point x="307" y="1090"/>
      <point x="385.28333333333336" y="1090.15" type="curve" smooth="yes"/>
      <point x="461" y="1090"/>
      <point x="515" y="1150"/>
      <point x="515.2333333333333" y="1232.7666666666667" type="curve" smooth="yes"/>
      <point x="515" y="1318"/>
      <point x="461" y="1378"/>
      <point x="385.28333333333336" y="1378.3833333333334" type="curve" smooth="yes"/>
      <point x="307" y="1378"/>
      <point x="251" y="1318"/>
    </contour>
  </outline>
</glyph>
<glyph name="cedilla" format="2">
  <advance width="1024"/>
  <unicode hex="00B8"/>
  <outline>
    <contour>
      <point x="440.0" y="42.0" type="line"/>
      <point x="536.0333333333333" y="42.0" type="line"/>
      <point x="502.3" y="-71.63333333333333" type="line"/>
      <point x="592" y="-87"/>
      <point x="662" y="-136"/>
      <point x="661.65" y="-226.0" type="curve" smooth="yes"/>
      <point x="662" y="-341"/>
      <point x="558" y="-421"/>
      <point x="347.28333333333336" y="-421.3833333333333" type="curve"/>
      <point x="342.43333333333334" y="-345.2" type="line"/>
      <point x="476" y="-342"/>
      <point x="549" y="-303"/>
      <point x="549.1666666666666" y="-228.0" type="curve" smooth="yes"/>
      <point x="549" y="-162"/>
      <point x="512" y="-144"/>
      <point x="399.0" y="-135.0" type="curve"/>
    </contour>
  </outline>
</glyph>
<glyph name="OE" format="2">
  <advance width="1578"/>
  <unicode hex="0152"/>
  <outline>
    <contour>
      <point x="594.6166666666667" y="1483.45" type="curve" smooth="yes"/>
      <point x="686.8533333333334" y="1483.45"/>
      <point x="798.1486666666667" y="1468.6406666666667"/>
      <point x="882.1666666666666" y="1456.0" type="curve"/>
      <point x="1500.6" y="1456.0" type="line"/>
      <point x="1500.6" y="1355.65" type="line"/>
      <point x="940.9833333333333" y="1355.65" type="line"/>
      <point x="940.9833333333333" y="801.35" type="line"/>
      <point x="1405.7333333333333" y="801.35" type="line"/>
      <point x="1405.7333333333333" y="699.8666666666667" type="line"/>
      <point x="940.9833333333333" y="699.8666666666667" type="line"/>
      <point x="940.9833333333333" y="101.13333333333333" type="line"/>
      <point x="1510.6" y="101.13333333333333" type="line"/>
      <point x="1510.6" y="0.0" type="line"/>
      <point x="860.6666666666666" y="0.0" type="line"/>
      <point x="778.5693333333334" y="-14.181666666666668"/>
      <point x="687.721" y="-27.45"/>
      <point x="583.0" y="-27.45" type="curve" smooth="yes"/>
      <point x="274.1523333333333" y="-27.45"/>
      <point x="115.0" y="231.14466666666664"/>
      <point x="115.0" y="685.5833333333334" type="curve" smooth="yes"/>
      <point x="115.0" y="769.85" type="line" smooth="yes"/>
      <point x="115.0" y="1220.871666666667"/>
      <point x="269.0636666666666" y="1483.45"/>
    </contour>
    <contour>
      <point x="224.8" y="685.5833333333334" type="line" smooth="yes"/>
      <point x="224.8" y="298.21166666666664"/>
      <point x="337.81399999999996" y="76.4"/>
      <point x="595.1833333333334" y="76.4" type="curve" smooth="yes"/>
      <point x="680.6083333333333" y="76.4"/>
      <point x="736.3046666666665" y="85.23766666666667"/>
      <point x="831.4" y="100.0" type="curve"/>
      <point x="831.4" y="1356.5833333333333" type="line"/>
      <point x="739.6323333333332" y="1371.7253333333335"/>
      <point x="665.5640000000001" y="1378.75"/>
      <point x="595.75" y="1378.75" type="curve" smooth="yes"/>
      <point x="336.4823333333333" y="1378.75"/>
      <point x="224.8" y="1154.751"/>
      <point x="224.8" y="770.4166666666666" type="curve" smooth="yes"/>
    </contour>
  </outline>
</glyph>
<glyph name="Schwa" format="2">
  <advance width="1297"/>
  <unicode hex="018F"/>
  <outline>
    <contour>
      <point x="93.38333333333333" y="1182.5166666666667" type="line"/>
      <point x="218.96366666666665" y="1396.2913333333333"/>
      <point x="420.58000000000004" y="1519.0"/>
      <point x="594.3333333333334" y="1519.0" type="curve" smooth="yes"/>
      <point x="1019.4259999999999" y="1519.0"/>
      <point x="1181.55" y="1211.1446666666666"/>
      <point x="1181.55" y="789.0" type="curve" smooth="yes"/>
      <point x="1181.55" y="315.55566666666664"/>
      <point x="990.0806666666667" y="-30.0"/>
      <point x="618.7666666666667" y="-30.0" type="curve" smooth="yes"/>
      <point x="304.827" y="-30.0"/>
      <point x="134.96666666666667" y="185.7373333333333"/>
      <point x="134.96666666666667" y="578.0" type="curve" smooth="yes"/>
      <point x="134.96666666666667" y="671.6666666666666" type="line"/>
      <point x="1078.6666666666667" y="671.6666666666666" type="line"/>
      <point x="1078.6666666666667" y="576.2166666666667" type="line"/>
      <point x="590.3333333333334" y="584.2166666666667" type="line"/>
      <point x="253.56666666666666" y="573.9166666666666" type="line"/>
      <point x="253.56666666666666" y="496.76666666666665" type="line" smooth="yes"/>
      <point x="253.56666666666666" y="226.04200000000003"/>
      <point x="392.1836666666667" y="66.18333333333334"/>
      <point x="626.6166666666667" y="66.18333333333334" type="curve" smooth="yes"/>
      <point x="928.1836666666666" y="66.18333333333334"/>
      <point x="1068.48" y="351.41966666666667"/>
      <point x="1065.8" y="756.1666666666666" type="curve" smooth="yes"/>
      <point x="1064.0803333333333" y="1182.376"/>
      <point x="904.8686666666667" y="1418.0"/>
      <point x="580.6333333333333" y="1418.0" type="curve" smooth="yes"/>
      <point x="425.0816666666667" y="1418.0"/>
      <point x="270.83299999999997" y="1329.8543333333332"/>
      <point x="157.0" y="1132.45" type="curve"/>
    </contour>
  </outline>
</glyph>
<glyph name="apostrophemod" format="2">
  <advance width="600"/>
  <unicode hex="02BC"/>
  <outline>
    <contour>
      <point x="210.18333333333334" y="1115.75" type="line"/>
      <point x="256.10066666666665" y="1156.9103333333335"/>
      <point x="312.06033333333335" y="1246.474"/>
      <point x="331.2" y="1334.3333333333333" type="curve"/>
      <point x="260.0683333333333" y="1334.3333333333333"/>
      <point x="209.58333333333334" y="1378.6093333333333"/>
      <point x="209.58333333333334" y="1440.3833333333334" type="curve" smooth="yes"/>
      <point x="209.58333333333334" y="1501.7776666666666"/>
      <point x="254.70099999999996" y="1546.0"/>
      <point x="317.03333333333336" y="1546.0" type="curve" smooth="yes"/>
      <point x="376.88666666666666" y="1546.0"/>
      <point x="433.3333333333333" y="1491.1153333333332"/>
      <point x="433.3333333333333" y="1410.9833333333333" type="curve" smooth="yes"/>
      <point x="433.3333333333333" y="1282.0753333333332"/>
      <point x="341.39466666666664" y="1144.9300000000003"/>
      <point x="235.26666666666665" y="1087.5333333333333" type="curve"/>
    </contour>
  </outline>
</glyph>
<glyph name="tilde" format="2">
  <advance width="1024"/>
  <unicode hex="02DC"/>
  <outline>
    <contour>
      <point x="177.5" y="1269.4833333333333" type="line"/>
      <point x="221.72" y="1353.9033333333334"/>
      <point x="304.22" y="1406.1166666666666"/>
      <point x="394.0" y="1406.1166666666666" type="curve" smooth="yes"/>
      <point x="448.94" y="1406.1166666666666"/>
      <point x="497.42" y="1382.1100000000001"/>
      <point x="547.0" y="1349.95" type="curve" smooth="yes"/>
      <point x="592.56" y="1320.47"/>
      <point x="646.08" y="1292.55"/>
      <point x="697.0" y="1292.55" type="curve" smooth="yes"/>
      <point x="750.6" y="1292.55"/>
      <point x="800.6133333333332" y="1334.7433333333333"/>
      <point x="831.4333333333333" y="1382.9833333333333" type="curve"/>
      <point x="889.5" y="1318.6666666666667" type="line"/>
      <point x="849.1436666666666" y="1234.0903333333333"/>
      <point x="772.7816666666666" y="1190.0"/>
      <point x="691.6" y="1190.0" type="curve" smooth="yes"/>
      <point x="614.4159999999999" y="1190.0"/>
      <point x="550.54" y="1227.22"/>
      <point x="509.0" y="1250.0" type="curve" smooth="yes"/>
      <point x="463.44" y="1275.46"/>
      <point x="416.86" y="1303.0"/>
      <point x="378.0" y="1303.0" type="curve" smooth="yes"/>
      <point x="315.02" y="1303.0"/>
      <point x="256.12" y="1243.0610000000001"/>
      <point x="232.0" y="1204.0" type="curve"/>
    </contour>
  </outline>
</glyph>
<glyph name="hookabovecomb" format="2">
  <advance width="1024"/>
  <unicode hex="0309"/>
  <outline>
    <contour>
      <point x="464.75" y="1147.0" type="line"/>
      <point x="464.75" y="1186.0" type="line" smooth="yes"/>
      <point x="464.75" y="1246.0766666666666"/>
      <point x="486.62966666666665" y="1269.129"/>
      <point x="599.0333333333333" y="1286.75" type="curve" smooth="yes"/>
      <point x="678.875" y="1299.3906666666667"/>
      <point x="715.8166666666667" y="1334.5106666666668"/>
      <point x="715.8166666666667" y="1397.1333333333334" type="curve" smooth="yes"/>
      <point x="715.8166666666667" y="1467.6396666666667"/>
      <point x="667.365" y="1504.3833333333334"/>
      <point x="580.6" y="1504.3833333333334" type="curve" smooth="yes"/>
      <point x="489.0779999999999" y="1504.3833333333334"/>
      <point x="408.28666666666663" y="1471.251"/>
      <point x="385.28333333333336" y="1457.65" type="curve"/>
      <point x="348.48333333333335" y="1538.9333333333334" type="line"/>
      <point x="392.5023333333333" y="1564.3933333333334"/>
      <point x="482.3556666666666" y="1597.5"/>
      <point x="595.1166666666667" y="1597.5" type="curve" smooth="yes"/>
      <point x="744.3926666666666" y="1597.5"/>
      <point x="825.7833333333333" y="1519.9096666666667"/>
      <point x="825.7833333333333" y="1401.8333333333333" type="curve" smooth="yes"/>
      <point x="825.7833333333333" y="1282.819"/>
      <point x="733.4173333333333" y="1208.0336666666667"/>
      <point x="559.0833333333334" y="1192.3333333333333" type="curve"/>
      <point x="559.0833333333334" y="1147.0" type="line"/>
    </contour>
  </outline>
</glyph>
<glyph name="beta" format="2">
  <advance width="1011"/>
  <unicode hex="03B2"/>
  <outline>
    <contour>
      <point x="148.0" y="-416.0" type="line"/>
      <point x="148.0" y="1058.0" type="line" smooth="yes"/>
      <point x="148.0" y="1397.02"/>
      <point x="295.4163333333333" y="1556.0"/>
      <point x="512.1166666666667" y="1556.0" type="curve" smooth="yes"/>
      <point x="724.797" y="1556.0"/>
      <point x="853.3666666666667" y="1412.5809523809523"/>
      <point x="853.3666666666667" y="1177.7619047619048" type="curve" smooth="yes"/>
      <point x="853.3666666666667" y="1006.5067142857141"/>
      <point x="763.0759047619049" y="875.3656190476191"/>
      <point x="624.6666666666666" y="833.302380952381" type="curve"/>
      <point x="624.6666666666666" y="844.9690476190476" type="line"/>
      <point x="817.0619523809523" y="817.8180952380953"/>
      <point x="925.0" y="672.17"/>
      <point x="925.0" y="452.95238095238096" type="curve" smooth="yes"/>
      <point x="925.0" y="167.73019047619044"/>
      <point x="791" y="-19"/>
      <point x="545" y="-19" type="curve"/>
      <point x="428" y="-19"/>
      <point x="336.33966666666663" y="17.52799999999999"/>
      <point x="260.25" y="111.28333333333333" type="curve"/>
      <point x="260.25" y="-416.0" type="line"/>
    </contour>
    <contour>
      <point x="533.2833333333333" y="81.15" type="curve" smooth="yes"/>
      <point x="693.9046666666667" y="81.15"/>
      <point x="809.4" y="185.35190476190473"/>
      <point x="809.4" y="444.8333333333333" type="curve" smooth="yes"/>
      <point x="809.4" y="675.425"/>
      <point x="721.5013333333334" y="775.460380952381"/>
      <point x="505.7166666666667" y="778.3190476190476" type="curve" smooth="yes"/>
      <point x="402.48333333333335" y="778.3190476190476" type="line"/>
      <point x="402.48333333333335" y="883.7357142857143" type="line"/>
      <point x="506.7166666666667" y="883.7357142857143" type="line" smooth="yes"/>
      <point x="668.3621428571428" y="883.7357142857143"/>
      <point x="743.4166666666667" y="987.0849047619049"/>
      <point x="743.4166666666667" y="1176.7619047619048" type="curve" smooth="yes"/>
      <point x="743.4166666666667" y="1363.7780476190476"/>
      <point x="667.7736666666667" y="1454.85"/>
      <point x="508.9166666666667" y="1454.85" type="curve" smooth="yes"/>
      <point x="348.98766666666666" y="1454.85"/>
      <point x="260.25" y="1349.6793333333333"/>
      <point x="260.25" y="1097.0" type="curve" smooth="yes"/>
      <point x="260.25" y="238.55" type="line"/>
      <point x="295.1123333333333" y="162.84"/>
      <point x="395.75466666666665" y="81.15"/>
    </contour>
  </outline>
</glyph>
<glyph name="zeta" format="2">
  <advance width="684"/>
  <unicode hex="03B6"/>
  <outline>
    <contour>
      <point x="507" y="-348.0" type="line"/>
      <point x="537" y="-268"/>
      <point x="551" y="-230"/>
      <point x="551" y="-166" type="curve"/>
      <point x="551.0" y="-85.0"/>
      <point x="523" y="-41"/>
      <point x="381" y="5" type="curve" smooth="yes"/>
      <point x="332" y="21" type="line" smooth="yes"/>
      <point x="139" y="84"/>
      <point x="58.0" y="182"/>
      <point x="58.0" y="341" type="curve" smooth="yes"/>
      <point x="58.0" y="528"/>
      <point x="165" y="721"/>
      <point x="306" y="969" type="curve" smooth="yes"/>
      <point x="607" y="1496" type="line"/>
      <point x="607" y="1430" type="line"/>
      <point x="58" y="1430" type="line"/>
      <point x="58.116666666666674" y="1536.0" type="line"/>
      <point x="698.8666666666667" y="1536.0" type="line"/>
      <point x="698.8666666666667" y="1444.15" type="line"/>
      <point x="402" y="922" type="line" smooth="yes"/>
      <point x="254" y="659"/>
      <point x="173" y="495"/>
      <point x="173" y="354" type="curve" smooth="yes"/>
      <point x="173" y="217"/>
      <point x="253" y="166"/>
      <point x="383" y="123" type="curve" smooth="yes"/>
      <point x="435" y="105" type="line" smooth="yes"/>
      <point x="637" y="37"/>
      <point x="661" y="-43"/>
      <point x="661" y="-139" type="curve"/>
      <point x="661.0" y="-204"/>
      <point x="640" y="-283"/>
      <point x="609" y="-348.0" type="curve"/>
    </contour>
  </outline>
</glyph>
<glyph name="eta" format="2">
  <advance width="982"/>
  <unicode hex="03B7"/>
  <anchor x="350" y="1077" name="GRK_top"/>
  <outline>
    <contour>
      <point x="732" y="-416" type="line"/>
      <point x="732" y="747" type="line" smooth="yes"/>
      <point x="732" y="921"/>
      <point x="664" y="996"/>
      <point x="518" y="996" type="curve" smooth="yes"/>
      <point x="390" y="996"/>
      <point x="303" y="910"/>
      <point x="260" y="825" type="curve"/>
      <point x="260" y="0" type="line"/>
      <point x="148" y="0" type="line"/>
      <point x="148" y="1077" type="line"/>
      <point x="252" y="1077" type="line"/>
      <point x="255" y="936" type="line"/>
      <point x="256" y="936" type="line"/>
      <point x="328" y="1043"/>
      <point x="429" y="1097"/>
      <point x="559" y="1097" type="curve" smooth="yes"/>
      <point x="736" y="1097"/>
      <point x="844" y="997"/>
      <point x="844" y="734" type="curve" smooth="yes"/>
      <point x="844" y="-416" type="line"/>
    </contour>
  </outline>
</glyph>
<glyph name="theta" format="2">
  <advance width="983"/>
  <unicode hex="03B8"/>
  <outline>
    <contour>
      <point x="492" y="-30.0" type="curve" smooth="yes"/>
      <point x="254" y="-30.0"/>
      <point x="95.0" y="137"/>
      <point x="95.0" y="633" type="curve"/>
      <point x="95.0" y="903" type="line"/>
      <point x="95.0" y="1416"/>
      <point x="253" y="1556.0"/>
      <point x="490" y="1556.0" type="curve" smooth="yes"/>
      <point x="733" y="1556.0"/>
      <point x="888" y="1406"/>
      <point x="888" y="903" type="curve"/>
      <point x="888" y="633" type="line"/>
      <point x="888" y="137"/>
      <point x="735" y="-30.0"/>
    </contour>
    <contour>
      <point x="492" y="71" type="curve" smooth="yes"/>
      <point x="668" y="71"/>
      <point x="775.0" y="175"/>
      <point x="775.0" y="613" type="curve"/>
      <point x="775.0" y="924" type="line" smooth="yes"/>
      <point x="784" y="1355"/>
      <point x="677" y="1457"/>
      <point x="490" y="1457" type="curve" smooth="yes"/>
      <point x="291" y="1457"/>
      <point x="209" y="1331"/>
      <point x="209" y="924" type="curve" smooth="yes"/>
      <point x="209" y="613" type="line" smooth="yes"/>
      <point x="209" y="186.0"/>
      <point x="317" y="71"/>
    </contour>
    <contour>
      <point x="152" y="742" type="line"/>
      <point x="152" y="842" type="line"/>
      <point x="831" y="842" type="line"/>
      <point x="831" y="742" type="line"/>
    </contour>
  </outline>
</glyph>
<glyph name="kappa" format="2">
  <advance width="818"/>
  <unicode hex="03BA"/>
  <outline>
    <contour>
      <point x="148" y="0" type="line"/>
      <point x="148" y="1077" type="line"/>
      <point x="260" y="1077" type="line"/>
      <point x="260" y="0" type="line"/>
    </contour>
    <contour>
      <point x="196" y="499" type="line"/>
      <point x="196" y="599" type="line"/>
      <point x="404" y="599" type="line"/>
      <point x="686" y="1077" type="line"/>
      <point x="796" y="1077" type="line"/>
      <point x="460" y="499" type="line"/>
    </contour>
    <contour>
      <point x="713" y="0" type="line"/>
      <point x="404" y="502" type="line"/>
      <point x="475" y="584" type="line"/>
      <point x="834" y="0" type="line"/>
    </contour>
  </outline>
</glyph>
<glyph name="xi" format="2">
  <advance width="691"/>
  <unicode hex="03BE"/>
  <outline>
    <contour>
      <point x="535" y="-348.0" type="line"/>
      <point x="568" y="-263"/>
      <point x="579" y="-219"/>
      <point x="579" y="-159" type="curve"/>
      <point x="579.0" y="-77.0"/>
      <point x="532" y="-38"/>
      <point x="430" y="-3" type="curve" smooth="yes"/>
      <point x="362" y="20" type="line" smooth="yes"/>
      <point x="183" y="80"/>
      <point x="86" y="209.0"/>
      <point x="86.0" y="393" type="curve" smooth="yes"/>
      <point x="86" y="602"/>
      <point x="175.0403333333333" y="734.0054285714285"/>
      <point x="347.8333333333333" y="778.5380952380953" type="curve"/>
      <point x="348.8309523809524" y="760.5380952380953" type="line"/>
      <point x="217.50776190476188" y="800.9295238095237"/>
      <point x="123.4" y="904.9482380952381"/>
      <point x="123.4" y="1077.4285714285713" type="curve" smooth="yes"/>
      <point x="123.4" y="1252.8569047619048"/>
      <point x="228" y="1438"/>
      <point x="434" y="1448" type="curve"/>
      <point x="434" y="1431" type="line"/>
      <point x="89.93333333333334" y="1430.5833333333333" type="line"/>
      <point x="89.93333333333334" y="1536.0" type="line"/>
      <point x="698.8" y="1536.0" type="line"/>
      <point x="698.8" y="1437.5833333333333" type="line"/>
      <point x="333.9371428571429" y="1414.0344285714286"/>
      <point x="234" y="1289"/>
      <point x="234" y="1091" type="curve"/>
      <point x="234" y="931"/>
      <point x="323.4683333333333" y="827.494761904762"/>
      <point x="504.0333333333333" y="825.197619047619" type="curve" smooth="yes"/>
      <point x="652.8" y="825.197619047619" type="line"/>
      <point x="652.8" y="719.7809523809524" type="line"/>
      <point x="504" y="720" type="line" smooth="yes"/>
      <point x="299" y="720"/>
      <point x="201" y="592.0"/>
      <point x="201" y="402" type="curve" smooth="yes"/>
      <point x="201" y="220"/>
      <point x="302" y="161"/>
      <point x="429" y="117" type="curve" smooth="yes"/>
      <point x="475" y="101" type="line" smooth="yes"/>
      <point x="633" y="46"/>
      <point x="689.0" y="-22"/>
      <point x="689" y="-126" type="curve" smooth="yes"/>
      <point x="689" y="-201"/>
      <point x="670" y="-276"/>
      <point x="637" y="-348.0" type="curve"/>
    </contour>
  </outline>
</glyph>
<glyph name="finalsigma" format="2">
  <advance width="834"/>
  <unicode hex="03C2"/>
  <outline>
    <contour>
      <point x="617" y="-348" type="curve"/>
      <point x="719" y="-348" type="line"/>
      <point x="750" y="-283"/>
      <point x="771" y="-204"/>
      <point x="771" y="-139" type="curve"/>
      <point x="771" y="-43"/>
      <point x="747" y="37"/>
      <point x="545" y="105" type="curve" smooth="yes"/>
      <point x="493" y="123" type="line" smooth="yes"/>
      <point x="365" y="165"/>
      <point x="198" y="193"/>
      <point x="198" y="510" type="curve" smooth="yes"/>
      <point x="198" y="558" type="line" smooth="yes"/>
      <point x="198" y="847"/>
      <point x="286" y="1005"/>
      <point x="493" y="1005" type="curve" smooth="yes"/>
      <point x="677" y="1005"/>
      <point x="735" y="878"/>
      <point x="735" y="740" type="curve" smooth="yes"/>
      <point x="735" y="730" type="line"/>
      <point x="842" y="730" type="line"/>
      <point x="842" y="739" type="line" smooth="yes"/>
      <point x="842" y="925"/>
      <point x="737" y="1107"/>
      <point x="495" y="1107" type="curve" smooth="yes"/>
      <point x="250" y="1107"/>
      <point x="85" y="919"/>
      <point x="85" y="561" type="curve"/>
      <point x="85" y="507" type="line" smooth="yes"/>
      <point x="85" y="159"/>
      <point x="249" y="84"/>
      <point x="442" y="21" type="curve" smooth="yes"/>
      <point x="491" y="5" type="line" smooth="yes"/>
      <point x="633" y="-41"/>
      <point x="661" y="-85"/>
      <point x="661" y="-166" type="curve"/>
      <point x="661" y="-230"/>
      <point x="647" y="-268"/>
    </contour>
  </outline>
</glyph>
<glyph name="upsilon" format="2">
  <advance width="972"/>
  <unicode hex="03C5"/>
  <anchor x="486.0" y="1077" name="GRK_top"/>
  <outline>
    <contour>
      <point x="486.0" y="-20.0" type="curve" smooth="yes"/>
      <point x="262.0" y="-20.0"/>
      <point x="138.0" y="83"/>
      <point x="138.0" y="382" type="curve" smooth="yes"/>
      <point x="138.0" y="1077" type="line"/>
      <point x="250.0" y="1077" type="line"/>
      <point x="250.0" y="376" type="line" smooth="yes"/>
      <point x="250.0" y="154"/>
      <point x="321.0" y="81"/>
      <point x="486.0" y="81" type="curve" smooth="yes"/>
      <point x="652.0" y="81"/>
      <point x="722.0" y="154"/>
      <point x="722.0" y="376" type="curve" smooth="yes"/>
      <point x="722.0" y="1077" type="line"/>
      <point x="834.0" y="1077" type="line"/>
      <point x="834.0" y="382" type="line" smooth="yes"/>
      <point x="834.0" y="83"/>
      <point x="711.0" y="-20.0"/>
    </contour>
  </outline>
</glyph>
<glyph name="chi" format="2">
  <advance width="817"/>
  <unicode hex="03C7"/>
  <outline>
    <contour>
      <point x="681.9166666666666" y="-416.0" type="line"/>
      <point x="398" y="301" type="line"/>
      <point x="390" y="301" type="line"/>
      <point x="49.81666666666667" y="1076.857142857143" type="line"/>
      <point x="175.21666666666667" y="1076.857142857143" type="line"/>
      <point x="462" y="392" type="line"/>
      <point x="471" y="392" type="line"/>
      <point x="808.3833333333333" y="-416.0" type="line"/>
    </contour>
    <contour>
      <point x="17.65" y="-416.0" type="line"/>
      <point x="382" y="406" type="line"/>
      <point x="400" y="406" type="line"/>
      <point x="683" y="1077" type="line"/>
      <point x="803.4333333333334" y="1076.857142857143" type="line"/>
      <point x="454" y="296" type="line"/>
      <point x="445" y="296" type="line"/>
      <point x="139" y="-416.0" type="line"/>
    </contour>
  </outline>
</glyph>
<glyph name="psi" format="2">
  <advance width="1302"/>
  <unicode hex="03C8"/>
  <outline>
    <contour>
      <point x="595" y="-416.0" type="line"/>
      <point x="595" y="-20.0" type="line"/>
      <point x="305" y="-12"/>
      <point x="138.0" y="154"/>
      <point x="138.0" y="480.0" type="curve" smooth="yes"/>
      <point x="138.0" y="1077" type="line"/>
      <point x="250" y="1077" type="line"/>
      <point x="250" y="490.0" type="line" smooth="yes"/>
      <point x="250" y="249"/>
      <point x="334" y="94"/>
      <point x="595" y="81" type="curve"/>
      <point x="595" y="1536.0" type="line"/>
      <point x="707" y="1536.0" type="line"/>
      <point x="707" y="81" type="line"/>
      <point x="969" y="94"/>
      <point x="1052" y="249"/>
      <point x="1052" y="490.0" type="curve" smooth="yes"/>
      <point x="1052" y="1077" type="line"/>
      <point x="1164" y="1077" type="line"/>
      <point x="1164" y="480.0" type="line" smooth="yes"/>
      <point x="1164" y="154"/>
      <point x="997" y="-12"/>
      <point x="707" y="-20.0" type="curve"/>
      <point x="707" y="-416.0" type="line"/>
    </contour>
  </outline>
</glyph>
<glyph name="omega" format="2">
  <advance width="1422"/>
  <unicode hex="03C9"/>
  <anchor x="711.0" y="1077" name="GRK_top"/>
  <outline>
    <contour>
      <point x="440.0" y="-30" type="curve" smooth="yes"/>
      <point x="224.0" y="-30"/>
      <point x="95.0" y="149"/>
      <point x="95.0" y="489" type="curve" smooth="yes"/>
      <point x="95.0" y="753"/>
      <point x="177.0" y="952"/>
      <point x="279.0" y="1077" type="curve"/>
      <point x="404.0" y="1077" type="line"/>
      <point x="302.0" y="949"/>
      <point x="209.0" y="750"/>
      <point x="209.0" y="487" type="curve" smooth="yes"/>
      <point x="209.0" y="220"/>
      <point x="289.0" y="71"/>
      <point x="455.0" y="71" type="curve"/>
      <point x="588.0" y="71"/>
      <point x="655.0" y="166"/>
      <point x="655.0" y="376" type="curve" smooth="yes"/>
      <point x="655.0" y="719" type="line"/>
      <point x="768.0" y="719" type="line"/>
      <point x="768.0" y="376" type="line" smooth="yes"/>
      <point x="768.0" y="169"/>
      <point x="834.0" y="71"/>
      <point x="971.0" y="71" type="curve" smooth="yes"/>
      <point x="1130.0" y="71"/>
      <point x="1213.0" y="214"/>
      <point x="1213.0" y="487" type="curve"/>
      <point x="1213.0" y="750"/>
      <point x="1122.0" y="949"/>
      <point x="1019.0" y="1077" type="curve"/>
      <point x="1144.0" y="1077" type="line"/>
      <point x="1251.0" y="945"/>
      <point x="1327.0" y="748"/>
      <point x="1327.0" y="499" type="curve"/>
      <point x="1327.0" y="140"/>
      <point x="1196.0" y="-30"/>
      <point x="982.0" y="-30" type="curve" smooth="yes"/>
      <point x="839.0" y="-30"/>
      <point x="729.0" y="50"/>
      <point x="706.0" y="194" type="curve"/>
      <point x="716.0" y="194" type="line"/>
      <point x="693.0" y="50"/>
      <point x="585.0" y="-30"/>
    </contour>
  </outline>
</glyph>
<glyph name="Ze" format="2">
  <advance width="1035"/>
  <unicode hex="0417"/>
  <outline>
    <contour>
      <point x="466.1" y="75.63333333333333" type="curve" smooth="yes"/>
      <point x="708.1933333333334" y="75.63333333333333"/>
      <point x="827.7333333333333" y="198.33333333333331"/>
      <point x="827.7333333333333" y="406.03333333333336" type="curve" smooth="yes"/>
      <point x="827.7333333333333" y="578.9156666666665"/>
      <point x="753.1210000000001" y="705.0833333333334"/>
      <point x="442.93333333333334" y="705.0833333333334" type="curve" smooth="yes"/>
      <point x="334.5333333333333" y="705.0833333333334" type="line"/>
      <point x="334.5333333333333" y="808.7833333333333" type="line"/>
      <point x="475.73333333333335" y="808.7833333333333" type="line" smooth="yes"/>
      <point x="690.8033333333334" y="808.7833333333333"/>
      <point x="789.7333333333333" y="914.8598319088032"/>
      <point x="789.7333333333333" y="1091.4166666666667" type="curve" smooth="yes"/>
      <point x="789.7333333333333" y="1272.5140330687898"/>
      <point x="697.6948039216107" y="1380.3666666666666"/>
      <point x="485.85" y="1380.3666666666666" type="curve" smooth="yes"/>
      <point x="241.52333333333328" y="1380.3666666666666"/>
      <point x="167.73333333333332" y="1171.5573333333332"/>
      <point x="167.73333333333332" y="1007.05" type="curve" smooth="yes"/>
      <point x="167.73333333333332" y="998.6166666666667" type="line"/>
      <point x="52.349999999999994" y="998.6166666666667" type="line"/>
      <point x="52.349999999999994" y="1008.6166666666667" type="line" smooth="yes"/>
      <point x="52.349999999999994" y="1301.8086666666668"/>
      <point x="225.44666666666666" y="1486.0"/>
      <point x="487.4166666666667" y="1486.0" type="curve" smooth="yes"/>
      <point x="764.1490000000001" y="1486.0"/>
      <point x="904.55" y="1334.9684799679649"/>
      <point x="904.55" y="1101.0166666666667" type="curve" smooth="yes"/>
      <point x="904.55" y="921.2864304635893"/>
      <point x="816.1878408177081" y="808.0694619204053"/>
      <point x="660.4333333333334" y="764.7833333333333" type="curve"/>
      <point x="660.4333333333334" y="760.7833333333333" type="line"/>
      <point x="848.413" y="718.8636666666666"/>
      <point x="942.55" y="600.8443949903339"/>
      <point x="942.55" y="404.25" type="curve" smooth="yes"/>
      <point x="942.55" y="121.96842105261652"/>
      <point x="749.6556666666667" y="-30.0"/>
      <point x="468.23333333333335" y="-30.0" type="curve" smooth="yes"/>
      <point x="158.0233333333333" y="-30.0"/>
      <point x="6.883333333333326" y="193.018"/>
      <point x="6.883333333333326" y="431.7166666666667" type="curve" smooth="yes"/>
      <point x="6.883333333333326" y="441.7166666666667" type="line"/>
      <point x="122.26666666666665" y="441.7166666666667" type="line"/>
      <point x="122.26666666666665" y="431.7166666666667" type="line"/>
      <point x="130.84266666666667" y="306.9626666666667"/>
      <point x="227.2673333333333" y="75.63333333333333"/>
    </contour>
  </outline>
</glyph>
<glyph name="Icyr" format="2">
  <advance width="1257"/>
  <unicode hex="0418"/>
  <guideline x="739.0" y="930.0" angle="90.0" identifier="jpSOnFR6u4"/>
  <outline>
    <contour>
      <point x="1086.5" y="0.0" type="line"/>
      <point x="971.1166666666667" y="0.0" type="line"/>
      <point x="971.1166666666667" y="1135.6333333333334" type="line" smooth="yes"/>
      <point x="971.1166666666667" y="1181.5506666666668"/>
      <point x="972.2266666666667" y="1238.8286666666668"/>
      <point x="980.2666666666667" y="1286.6666666666667" type="curve"/>
      <point x="970.7666666666667" y="1286.6666666666667" type="line"/>
      <point x="960.6050000000001" y="1244.1216666666667"/>
      <point x="935.5363333333332" y="1195.744"/>
      <point x="914.8333333333334" y="1155.6333333333334" type="curve" smooth="yes"/>
      <point x="303.6" y="0.0" type="line"/>
      <point x="170.0" y="0.0" type="line"/>
      <point x="170.0" y="1456.0" type="line"/>
      <point x="285.3833333333333" y="1456.0" type="line"/>
      <point x="285.3833333333333" y="314.8833333333333" type="line" smooth="yes"/>
      <point x="285.3833333333333" y="271.82466666666664"/>
      <point x="285.3256666666666" y="216.68"/>
      <point x="280.1666666666667" y="169.33333333333331" type="curve"/>
      <point x="288.1666666666667" y="169.33333333333331" type="line"/>
      <point x="303.79999999999995" y="220.03"/>
      <point x="326.77866666666665" y="283.159"/>
      <point x="345.58333333333337" y="317.0833333333333" type="curve" smooth="yes"/>
      <point x="952.9" y="1456.0" type="line"/>
      <point x="1086.5" y="1456.0" type="line"/>
    </contour>
  </outline>
</glyph>
<glyph name="El" format="2">
  <advance width="1239"/>
  <unicode hex="041B"/>
  <outline>
    <contour>
      <point x="286.35" y="1456.0" type="line"/>
      <point x="1068.6" y="1456.0" type="line"/>
      <point x="1068.6" y="0.0" type="line"/>
      <point x="953.2166666666667" y="0.0" type="line"/>
      <point x="953.2166666666667" y="1352.4333333333334" type="line"/>
      <point x="388.9666666666667" y="1352.4333333333334" type="line"/>
      <point x="353.73333333333335" y="556.3333333333334" type="line" smooth="yes"/>
      <point x="338.502" y="191.07166666666666"/>
      <point x="286.6066666666666" y="-13.768333333333334"/>
      <point x="96.55" y="-8.966666666666665" type="curve" smooth="yes"/>
      <point x="62.916000000000004" y="-8.006333333333334"/>
      <point x="42.18233333333333" y="-2.2563333333333357"/>
      <point x="10.0" y="10.183333333333334" type="curve"/>
      <point x="10.0" y="128.65" type="line"/>
      <point x="34.991" y="117.93"/>
      <point x="52.05566666666667" y="112.06666666666666"/>
      <point x="92.23333333333333" y="112.06666666666666" type="curve" smooth="yes"/>
      <point x="200.25966666666665" y="112.06666666666666"/>
      <point x="234.799" y="268.5643333333333"/>
      <point x="248.4" y="575.0" type="curve" smooth="yes"/>
    </contour>
  </outline>
</glyph>
<glyph name="Che" format="2">
  <advance width="1218"/>
  <unicode hex="0427"/>
  <guideline x="1123.0" y="741.0" angle="90.0" identifier="nfCxFSb4p1"/>
  <outline>
    <contour>
      <point x="271.0833333333333" y="1104.2833333333333" type="line" smooth="yes"/>
      <point x="271.0833333333333" y="753.4043333333332"/>
      <point x="424.29133333333334" y="679.5666666666667"/>
      <point x="644.9" y="679.5666666666667" type="curve" smooth="yes"/>
      <point x="795.8956666666668" y="679.5666666666667"/>
      <point x="888.5246666666666" y="697.432"/>
      <point x="989.65" y="725.6166666666667" type="curve"/>
      <point x="989.65" y="621.3333333333334" type="line"/>
      <point x="886.0903333333333" y="594.6896666666668"/>
      <point x="799.056" y="576.0"/>
      <point x="653.8" y="576.0" type="curve" smooth="yes"/>
      <point x="381.378" y="576.0"/>
      <point x="157.83333333333334" y="672.8936666666666"/>
      <point x="157.83333333333334" y="1104.0833333333333" type="curve" smooth="yes"/>
      <point x="157.83333333333334" y="1456.0" type="line"/>
      <point x="271.0833333333333" y="1456.0" type="line"/>
    </contour>
    <contour>
      <point x="1047.7666666666667" y="1456.0" type="line"/>
      <point x="1047.7666666666667" y="0.0" type="line"/>
      <point x="933.1" y="0.0" type="line"/>
      <point x="933.1" y="1456.0" type="line"/>
    </contour>
  </outline>
</glyph>
<glyph name="Soft" format="2">
  <advance width="1028"/>
  <unicode hex="042C"/>
  <outline>
    <contour>
      <point x="170.0" y="1456.0" type="line"/>
      <point x="170.0" y="0.0" type="line"/>
      <point x="543.7166666666667" y="0.0" type="line" smooth="yes"/>
      <point x="815.7143333333333" y="0.0"/>
      <point x="950.5166666666667" y="142.9049112391437"/>
      <point x="950.5166666666667" y="439.95" type="curve" smooth="yes"/>
      <point x="950.5166666666667" y="736.4879678560669"/>
      <point x="815.7199332477261" y="880.2"/>
      <point x="543.7166666666667" y="880.2" type="curve" smooth="yes"/>
      <point x="285.3833333333333" y="880.2" type="line"/>
      <point x="285.3833333333333" y="1456.0" type="line"/>
    </contour>
    <contour>
      <point x="285.3833333333333" y="776.6333333333333" type="line"/>
      <point x="542.65" y="776.6333333333333" type="line" smooth="yes"/>
      <point x="761.1816666666667" y="776.6333333333333"/>
      <point x="835.1333333333333" y="647.2354727547479"/>
      <point x="835.1333333333333" y="439.95" type="curve" smooth="yes"/>
      <point x="835.1333333333333" y="234.5959406583099"/>
      <point x="760.819" y="102.5"/>
      <point x="543.7166666666667" y="102.5" type="curve" smooth="yes"/>
      <point x="285.3833333333333" y="102.5" type="line"/>
    </contour>
  </outline>
</glyph>
<glyph name="Ecyr" format="2">
  <advance width="1073"/>
  <unicode hex="042D"/>
  <guideline x="1147.0" y="753.0" angle="90.0" identifier="Ovo68woMtl"/>
  <outline>
    <contour>
      <point x="898.1666666666667" y="789.9833333333333" type="line"/>
      <point x="898.1666666666667" y="686.4166666666666" type="line"/>
      <point x="354.9" y="686.4166666666666" type="line"/>
      <point x="354.9" y="789.9833333333333" type="line"/>
    </contour>
    <contour>
      <point x="840.9" y="656.35" type="curve" smooth="yes"/>
      <point x="840.9" y="788.9666666666667" type="line" smooth="yes"/>
      <point x="840.9" y="1182.078"/>
      <point x="705.442" y="1380.3666666666666"/>
      <point x="463.6166666666667" y="1380.3666666666666" type="curve" smooth="yes"/>
      <point x="221.67966666666663" y="1380.3666666666666"/>
      <point x="152.2" y="1221.3476666666668"/>
      <point x="152.2" y="1021.9333333333333" type="curve" smooth="yes"/>
      <point x="152.2" y="1014.2833333333333" type="line"/>
      <point x="36.81666666666666" y="1014.2833333333333" type="line"/>
      <point x="36.81666666666666" y="1021.9333333333333" type="line" smooth="yes"/>
      <point x="36.81666666666666" y="1303.579"/>
      <point x="191.351" y="1486.0"/>
      <point x="463.6166666666667" y="1486.0" type="curve" smooth="yes"/>
      <point x="749.9076666666667" y="1486.0"/>
      <point x="956.5" y="1274.8046666666667"/>
      <point x="956.5" y="746.8" type="curve" smooth="yes"/>
      <point x="956.5" y="673.1666666666666" type="line" smooth="yes"/>
      <point x="956.5" y="215.71300000000002"/>
      <point x="759.0773333333333" y="-30.0"/>
      <point x="455.43333333333334" y="-30.0" type="curve" smooth="yes"/>
      <point x="172.87199999999996" y="-30.0"/>
      <point x="6.883333333333326" y="137.05071972793394"/>
      <point x="6.883333333333326" y="427.8" type="curve" smooth="yes"/>
      <point x="6.883333333333326" y="441.7166666666667" type="line"/>
      <point x="122.26666666666665" y="441.7166666666667" type="line"/>
      <point x="122.26666666666665" y="427.8" type="line"/>
      <point x="130.84266666666667" y="266.3076666666666"/>
      <point x="230.53133333333332" y="75.63333333333333"/>
      <point x="456.5" y="75.63333333333333" type="curve" smooth="yes"/>
      <point x="658.84" y="75.63333333333333"/>
      <point x="840.9" y="276.996"/>
    </contour>
  </outline>
</glyph>
<glyph name="Yu" format="2">
  <advance width="1692"/>
  <unicode hex="042E"/>
  <guideline x="732.0" y="785.0" angle="90.0" identifier="6nH5tb4DEh"/>
  <outline>
    <contour>
      <point x="170.0" y="0.0" type="line"/>
      <point x="170.0" y="1456.0" type="line"/>
      <point x="285.3833333333333" y="1456.0" type="line"/>
      <point x="285.3833333333333" y="802.7833333333333" type="line"/>
      <point x="635.55" y="802.7833333333333" type="line"/>
      <point x="635.55" y="699.2166666666667" type="line"/>
      <point x="285.3833333333333" y="699.2166666666667" type="line"/>
      <point x="285.3833333333333" y="0.0" type="line"/>
    </contour>
    <contour>
      <point x="578.0" y="692.75" type="curve" smooth="yes"/>
      <point x="578.0" y="763.25" type="line" smooth="yes"/>
      <point x="578.0" y="1258.4023333333334"/>
      <point x="787.173" y="1486.0"/>
      <point x="1077.35" y="1486.0" type="curve" smooth="yes"/>
      <point x="1367.527" y="1486.0"/>
      <point x="1576.35" y="1258.4023333333334"/>
      <point x="1576.35" y="763.25" type="curve" smooth="yes"/>
      <point x="1576.35" y="692.75" type="line" smooth="yes"/>
      <point x="1576.35" y="197.59766666666667"/>
      <point x="1367.527" y="-30.0"/>
      <point x="1077.35" y="-30.0" type="curve" smooth="yes"/>
      <point x="788.1333333333333" y="-30.0"/>
      <point x="578.0" y="197.59766666666667"/>
    </contour>
    <contour>
      <point x="693.6" y="660.75" type="line" smooth="yes"/>
      <point x="693.6" y="260.1123333333333"/>
      <point x="851.6716666666667" y="75.63333333333333"/>
      <point x="1077.35" y="75.63333333333333" type="curve" smooth="yes"/>
      <point x="1305.0383333333334" y="75.63333333333333"/>
      <point x="1459.6833333333334" y="260.1123333333333"/>
      <point x="1459.6833333333334" y="660.75" type="curve" smooth="yes"/>
      <point x="1459.6833333333334" y="796.3166666666666" type="line" smooth="yes"/>
      <point x="1459.6833333333334" y="1196.9543333333334"/>
      <point x="1305.0383333333334" y="1380.3666666666666"/>
      <point x="1077.35" y="1380.3666666666666" type="curve" smooth="yes"/>
      <point x="851.6716666666667" y="1380.3666666666666"/>
      <point x="693.6" y="1196.9543333333334"/>
      <point x="693.6" y="796.3166666666666" type="curve" smooth="yes"/>
    </contour>
  </outline>
</glyph>
<glyph name="icyr" format="2">
  <advance width="1002"/>
  <unicode hex="0438"/>
  <outline>
    <contour>
      <point x="259.5333333333333" y="327.5" type="line" smooth="yes"/>
      <point x="259.5333333333333" y="287.3"/>
      <point x="258.8733333333333" y="232.7"/>
      <point x="257.5333333333333" y="192.5" type="curve"/>
      <point x="264.5333333333333" y="192.5" type="line"/>
      <point x="281.86400000000003" y="224.57066666666668"/>
      <point x="296.53433333333334" y="266.4513333333333"/>
      <point x="318.66666666666663" y="307.5" type="curve" smooth="yes"/>
      <point x="733.5666666666666" y="1052.0" type="line"/>
      <point x="853.7" y="1052.0" type="line"/>
      <point x="853.7" y="0.0" type="line"/>
      <point x="742.1666666666666" y="0.0" type="line"/>
      <point x="742.1666666666666" y="725.2833333333333" type="line" smooth="yes"/>
      <point x="742.1666666666666" y="765.4833333333333"/>
      <point x="742.8266666666666" y="820.0833333333333"/>
      <point x="744.1666666666666" y="860.2833333333333" type="curve"/>
      <point x="737.1666666666666" y="860.2833333333333" type="line"/>
      <point x="719.836" y="828.2126666666667"/>
      <point x="706.126" y="788.2526666666668"/>
      <point x="683.0333333333333" y="745.2833333333333" type="curve" smooth="yes"/>
      <point x="268.1333333333333" y="0.0" type="line"/>
      <point x="148.0" y="0.0" type="line"/>
      <point x="148.0" y="1052.0" type="line"/>
      <point x="259.5333333333333" y="1052.0" type="line"/>
    </contour>
  </outline>
</glyph>
<glyph name="ya" format="2">
  <advance width="980"/>
  <unicode hex="044F"/>
  <outline>
    <contour>
      <point x="239.05" y="0.0" type="line"/>
      <point x="99.55" y="0.0" type="line"/>
      <point x="375.7166666666667" y="454.0" type="line"/>
      <point x="496.2166666666667" y="437.0" type="line"/>
    </contour>
    <contour>
      <point x="720.15" y="0.0" type="line"/>
      <point x="720.15" y="391.2" type="line"/>
      <point x="456.4" y="391.2" type="line"/>
      <point x="462.6" y="391.06666666666666" type="line"/>
      <point x="252.80066666666661" y="414.0253333333333"/>
      <point x="137.75" y="535.0819999999999"/>
      <point x="137.75" y="719.6" type="curve" smooth="yes"/>
      <point x="137.75" y="921.2476666666668"/>
      <point x="279.469" y="1052.0"/>
      <point x="534.7166666666667" y="1052.0" type="curve" smooth="yes"/>
      <point x="831.6833333333334" y="1052.0" type="line"/>
      <point x="831.6833333333334" y="0.0" type="line"/>
    </contour>
    <contour>
      <point x="534.7166666666667" y="491.76666666666665" type="curve" smooth="yes"/>
      <point x="720.15" y="491.76666666666665" type="line"/>
      <point x="720.15" y="951.4333333333334" type="line"/>
      <point x="534.7166666666667" y="951.4333333333334" type="line" smooth="yes"/>
      <point x="327.307" y="951.4333333333334"/>
      <point x="252.15" y="854.7753679416732"/>
      <point x="252.15" y="719.6" type="curve" smooth="yes"/>
      <point x="252.15" y="585.7997523277643"/>
      <point x="328.3566666666667" y="491.76666666666665"/>
    </contour>
  </outline>
</glyph>
<glyph name="lje" format="2">
  <advance width="1471"/>
  <unicode hex="0459"/>
  <outline>
    <contour>
      <point x="803.1833333333334" y="1052.0" type="line"/>
      <point x="803.1833333333334" y="667.0" type="line"/>
      <point x="1004.2833333333333" y="667.0" type="line" smooth="yes"/>
      <point x="1254.2826666666665" y="667.0"/>
      <point x="1393.4166666666667" y="539.5596666666667"/>
      <point x="1393.4166666666667" y="335.5" type="curve" smooth="yes"/>
      <point x="1393.4166666666667" y="131.4403333333333"/>
      <point x="1254.2826666666665" y="0.0"/>
      <point x="1004.2833333333333" y="0.0" type="curve" smooth="yes"/>
      <point x="691.65" y="0.0" type="line"/>
      <point x="691.65" y="951.4333333333334" type="line"/>
      <point x="305.5" y="951.4333333333334" type="line"/>
      <point x="284.9666666666667" y="358.91666666666663" type="line" smooth="yes"/>
      <point x="278.892" y="174.421"/>
      <point x="254.8606666666667" y="-14.866666666666667"/>
      <point x="88.56666666666666" y="-14.866666666666667" type="curve" smooth="yes"/>
      <point x="45.440999999999995" y="-14.866666666666667"/>
      <point x="34.03066666666667" y="-7.497333333333335"/>
      <point x="10.0" y="3.133333333333333" type="curve"/>
      <point x="10.0" y="110.4" type="line"/>
      <point x="32.311" y="101.98033333333333"/>
      <point x="38.09533333333333" y="95.96666666666667"/>
      <point x="71.41666666666667" y="95.96666666666667" type="curve" smooth="yes"/>
      <point x="154.92100000000002" y="95.96666666666667"/>
      <point x="175.93266666666668" y="252.30766666666665"/>
      <point x="179.41666666666666" y="345.68333333333334" type="curve" smooth="yes"/>
      <point x="203.16666666666666" y="1052.0" type="line"/>
    </contour>
    <contour>
      <point x="1004.2833333333333" y="566.4333333333334" type="curve" smooth="yes"/>
      <point x="803.1833333333334" y="566.4333333333334" type="line"/>
      <point x="803.1833333333334" y="100.56666666666666" type="line"/>
      <point x="1004.2833333333333" y="100.56666666666666" type="line" smooth="yes"/>
      <point x="1205.3950000000002" y="100.56666666666666"/>
      <point x="1279.0166666666667" y="198.351"/>
      <point x="1279.0166666666667" y="335.5" type="curve" smooth="yes"/>
      <point x="1279.0166666666667" y="471.309"/>
      <point x="1205.3950000000002" y="566.4333333333334"/>
    </contour>
  </outline>
</glyph>
<glyph name="obarcyr" format="2">
  <advance width="1001"/>
  <unicode hex="04E9"/>
  <guideline x="176.66666666666666" y="651.8" angle="90.0" identifier="hR8aPakcxg"/>
  <guideline x="833.7333333333333" y="589.7333333333333" angle="90.0" identifier="Zk7mCVRpZk"/>
  <outline>
    <contour>
      <point x="140.76666666666665" y="586.35" type="line"/>
      <point x="862.4666666666667" y="586.35" type="line"/>
      <point x="862.4666666666667" y="485.78333333333336" type="line"/>
      <point x="140.76666666666665" y="485.78333333333336" type="line"/>
    </contour>
    <contour>
      <point x="85.0" y="510.0" type="curve" smooth="yes"/>
      <point x="85.0" y="542.0" type="line" smooth="yes"/>
      <point x="85.0" y="889.5066666666667"/>
      <point x="246.5153333333333" y="1082.0"/>
      <point x="500.26666666666665" y="1082.0" type="curve" smooth="yes"/>
      <point x="754.018" y="1082.0"/>
      <point x="916.6" y="889.5066666666667"/>
      <point x="916.6" y="542.0" type="curve" smooth="yes"/>
      <point x="916.6" y="510.0" type="line" smooth="yes"/>
      <point x="916.6" y="162.49333333333328"/>
      <point x="754.018" y="-30.0"/>
      <point x="500.26666666666665" y="-30.0" type="curve" smooth="yes"/>
      <point x="246.5153333333333" y="-30.0"/>
      <point x="85.0" y="162.49333333333328"/>
    </contour>
    <contour>
      <point x="199.1" y="566.1666666666666" type="curve" smooth="yes"/>
      <point x="199.1" y="485.8333333333333" type="line" smooth="yes"/>
      <point x="199.1" y="227.70466666666664"/>
      <point x="301.03099999999995" y="71.15"/>
      <point x="500.26666666666665" y="71.15" type="curve" smooth="yes"/>
      <point x="699.5023333333334" y="71.15"/>
      <point x="802.5" y="227.70466666666664"/>
      <point x="802.5" y="485.8333333333333" type="curve" smooth="yes"/>
      <point x="802.5" y="566.1666666666666" type="line" smooth="yes"/>
      <point x="802.5" y="831.442"/>
      <point x="708.0783333333334" y="980.85"/>
      <point x="500.26666666666665" y="980.85" type="curve" smooth="yes"/>
      <point x="292.455" y="980.85"/>
      <point x="199.1" y="824.2953333333332"/>
    </contour>
  </outline>
</glyph>
<glyph name="Germandbls" format="2">
  <advance width="1353"/>
  <unicode hex="1E9E"/>
  <outline>
    <contour>
      <point x="240.26666666666665" y="1084.6333333333334" type="line" smooth="yes"/>
      <point x="240.26666666666665" y="1384.0786666666665"/>
      <point x="372.29966666666667" y="1509.2833333333333"/>
      <point x="609.1" y="1509.2833333333333" type="curve" smooth="yes"/>
      <point x="768.9173333333333" y="1509.2833333333333"/>
      <point x="929.2833333333333" y="1443.6536666666668"/>
      <point x="929.2833333333333" y="1249.7333333333333" type="curve" smooth="yes"/>
      <point x="929.2833333333333" y="1143.784"/>
      <point x="900.711" y="1081.032"/>
      <point x="779.0166666666667" y="987.5" type="curve" smooth="yes"/>
      <point x="705.808" y="931.153"/>
      <point x="672.85" y="887.4993333333332"/>
      <point x="672.85" y="863.0666666666667" type="curve" smooth="yes"/>
      <point x="672.85" y="798.4786666666666"/>
      <point x="786.6273333333334" y="751.5413333333333"/>
      <point x="931.8833333333333" y="703.0333333333333" type="curve" smooth="yes"/>
      <point x="1192.424" y="614.035"/>
      <point x="1255.8" y="504.34866666666665"/>
      <point x="1255.8" y="336.0" type="curve" smooth="yes"/>
      <point x="1255.8" y="99.40066666666667"/>
      <point x="1129.2353333333335" y="-22.833333333333332"/>
      <point x="837.3833333333333" y="-22.833333333333332" type="curve" smooth="yes"/>
      <point x="619.0526666666667" y="-22.833333333333332"/>
      <point x="487.3" y="104.69133333333332"/>
      <point x="487.3" y="300.73333333333335" type="curve" smooth="yes"/>
      <point x="487.3" y="317.0333333333333" type="line"/>
      <point x="615.05" y="317.0333333333333" type="line"/>
      <point x="615.05" y="301.45" type="line" smooth="yes"/>
      <point x="615.05" y="162.62599999999998"/>
      <point x="709.9206666666666" y="84.11666666666667"/>
      <point x="836.4166666666666" y="84.11666666666667" type="curve" smooth="yes"/>
      <point x="1030.873" y="84.11666666666667"/>
      <point x="1137.6333333333334" y="184.143"/>
      <point x="1137.6333333333334" y="330.71666666666664" type="curve" smooth="yes"/>
      <point x="1137.6333333333334" y="453.014"/>
      <point x="1085.0116666666668" y="525.853"/>
      <point x="841.4666666666667" y="611.2333333333333" type="curve" smooth="yes"/>
      <point x="671.2420000000001" y="669.2776666666666"/>
      <point x="559.9166666666666" y="745.838"/>
      <point x="559.9166666666666" y="850.9833333333333" type="curve" smooth="yes"/>
      <point x="559.9166666666666" y="914.3206666666666"/>
      <point x="608.7036666666668" y="992.202"/>
      <point x="681.6666666666666" y="1050.9833333333333" type="curve" smooth="yes"/>
      <point x="794.6733333333334" y="1140.0710000000001"/>
      <point x="833.0166666666667" y="1177.0439999999999"/>
      <point x="833.0166666666667" y="1241.9" type="curve" smooth="yes"/>
      <point x="833.0166666666667" y="1348.229"/>
      <point x="731.2783333333333" y="1403.1833333333334"/>
      <point x="607.2166666666667" y="1403.1833333333334" type="curve" smooth="yes"/>
      <point x="449.69966666666664" y="1403.1833333333334"/>
      <point x="346.35" y="1286.625"/>
      <point x="346.35" y="1076.1333333333334" type="curve" smooth="yes"/>
      <point x="346.35" y="337.0833333333333" type="line" smooth="yes"/>
      <point x="346.35" y="111.78466666666665"/>
      <point x="258.549" y="-16.0"/>
      <point x="90.13333333333333" y="-16.0" type="curve" smooth="yes"/>
      <point x="63.11" y="-16.0"/>
      <point x="37.32466666666667" y="-11.827666666666666"/>
      <point x="25.666666666666664" y="-6.266666666666667" type="curve"/>
      <point x="25.1" y="103.91666666666667" type="line"/>
      <point x="34.278999999999996" y="98.93633333333334"/>
      <point x="55.71600000000001" y="96.05"/>
      <point x="79.3" y="96.05" type="curve" smooth="yes"/>
      <point x="182.748" y="96.05"/>
      <point x="240.26666666666665" y="181.53166666666667"/>
      <point x="240.26666666666665" y="337.0833333333333" type="curve" smooth="yes"/>
    </contour>
  </outline>
</glyph>
<glyph name="quoteright" format="2">
  <advance width="410"/>
  <unicode hex="2019"/>
  <outline>
    <contour>
      <point x="287.9" y="1458.0" type="line"/>
      <point x="287.9" y="1335.0166666666667" type="line" smooth="yes"/>
      <point x="287.9" y="1214.4166666666667"/>
      <point x="238.61166666666668" y="1084.4326666666666"/>
      <point x="133.53333333333333" y="995.2333333333333" type="curve"/>
      <point x="59.06666666666666" y="1046.0166666666667" type="line"/>
      <point x="128.769" y="1127.7343333333333"/>
      <point x="161.95" y="1223.4766666666667"/>
      <point x="161.95" y="1332.0166666666667" type="curve" smooth="yes"/>
      <point x="161.95" y="1458.0" type="line"/>
    </contour>
  </outline>
</glyph>
<glyph name="quotedblleft" format="2">
  <advance width="730"/>
  <unicode hex="201C"/>
  <outline>
    <contour>
      <point x="120.66666666666667" y="1094.5" type="line"/>
      <point x="120.66666666666667" y="1215.5" type="line" smooth="yes"/>
      <point x="120.66666666666667" y="1336.1"/>
      <point x="169.8586666666667" y="1466.084"/>
      <point x="275.31666666666666" y="1555.2833333333333" type="curve"/>
      <point x="349.5" y="1504.5" type="line"/>
      <point x="280.1773333333333" y="1422.7823333333333"/>
      <point x="246.33333333333334" y="1327.04"/>
      <point x="246.33333333333334" y="1218.5" type="curve" smooth="yes"/>
      <point x="246.33333333333334" y="1094.5" type="line"/>
    </contour>
    <contour>
      <point x="440.3333333333333" y="1094.5" type="line"/>
      <point x="440.3333333333333" y="1215.5" type="line" smooth="yes"/>
      <point x="440.3333333333333" y="1336.1"/>
      <point x="489.52533333333326" y="1466.084"/>
      <point x="594.9833333333333" y="1555.2833333333333" type="curve"/>
      <point x="669.1666666666666" y="1504.5" type="line"/>
      <point x="599.844" y="1422.7823333333333"/>
      <point x="566.0" y="1327.04"/>
      <point x="566.0" y="1218.5" type="curve" smooth="yes"/>
      <point x="566.0" y="1094.5" type="line"/>
    </contour>
  </outline>
</glyph>
<glyph name="hryvnia" format="2">
  <advance width="1042"/>
  <unicode hex="20B4"/>
  <outline>
    <contour>
      <point x="997.85" y="621.2666666666667" type="line"/>
      <point x="43.916666666666664" y="621.2666666666667" type="line"/>
      <point x="43.916666666666664" y="516.45" type="line"/>
      <point x="997.85" y="516.45" type="line"/>
    </contour>
    <contour>
      <point x="994.65" y="944.1333333333333" type="line"/>
      <point x="43.916666666666664" y="944.1333333333333" type="line"/>
      <point x="43.916666666666664" y="837.5333333333333" type="line"/>
      <point x="997.85" y="837.5333333333333" type="line"/>
    </contour>
    <contour>
      <point x="947.45" y="1141.3333333333333" type="curve" smooth="yes"/>
      <point x="947.45" y="1354.036"/>
      <point x="786.7036666666665" y="1486.0"/>
      <point x="528.0166666666667" y="1486.0" type="curve" smooth="yes"/>
      <point x="281.2556666666667" y="1486.0"/>
      <point x="115.23333333333333" y="1324.8303333333336"/>
      <point x="115.23333333333333" y="1087.5833333333333" type="curve" smooth="yes"/>
      <point x="115.23333333333333" y="1064.9166666666667" type="line"/>
      <point x="229.9" y="1064.9166666666667" type="line"/>
      <point x="229.9" y="1087.5833333333333" type="line" smooth="yes"/>
      <point x="229.9" y="1256.8700000000001"/>
      <point x="335.553" y="1380.3666666666666"/>
      <point x="530.3666666666667" y="1380.3666666666666" type="curve" smooth="yes"/>
      <point x="751.1316666666667" y="1380.3666666666666"/>
      <point x="834.7833333333333" y="1272.0693333333334"/>
      <point x="834.7833333333333" y="1133.0666666666666" type="curve" smooth="yes"/>
      <point x="834.7833333333333" y="1057.3566666666666"/>
      <point x="814.8746666666666" y="995.1923333333333"/>
      <point x="739.5666666666667" y="931.9666666666667" type="curve"/>
      <point x="898.5666666666666" y="931.9666666666667" type="line"/>
      <point x="930.2800000000001" y="989.8546666666666"/>
      <point x="947.45" y="1059.3253333333334"/>
    </contour>
    <contour>
      <point x="973.2" y="389.9166666666667" type="line"/>
      <point x="857.8166666666667" y="389.9166666666667" type="line"/>
      <point x="857.8166666666667" y="367.25" type="line" smooth="yes"/>
      <point x="857.8166666666667" y="180.27533333333332"/>
      <point x="737.7823333333334" y="75.63333333333333"/>
      <point x="528.05" y="75.63333333333333" type="curve" smooth="yes"/>
      <point x="318.31766666666664" y="75.63333333333333"/>
      <point x="203.43333333333334" y="196.63133333333332"/>
      <point x="203.43333333333334" y="358.95" type="curve" smooth="yes"/>
      <point x="203.43333333333334" y="437.2506666666667"/>
      <point x="219.48066666666665" y="498.46733333333333"/>
      <point x="271.3833333333333" y="546.35" type="curve"/>
      <point x="129.65" y="546.35" type="line"/>
      <point x="102.82766666666666" y="493.12966666666665"/>
      <point x="90.76666666666667" y="429.954"/>
      <point x="90.76666666666667" y="354.3333333333333" type="curve" smooth="yes"/>
      <point x="90.76666666666667" y="111.65933333333334"/>
      <point x="256.901" y="-30.0"/>
      <point x="528.05" y="-30.0" type="curve" smooth="yes"/>
      <point x="798.8193333333334" y="-30.0"/>
      <point x="973.2" y="92.12566666666663"/>
      <point x="973.2" y="367.25" type="curve" smooth="yes"/>
    </contour>
  </outline>
</glyph>
<glyph name="approxequal" format="2">
  <advance width="1024"/>
  <unicode hex="2248"/>
  <outline>
    <contour>
      <point x="126.0" y="738.7666666666667" type="curve"/>
      <point x="126.0" y="860.9" type="line"/>
      <point x="177.54533333333333" y="927.8106666666667"/>
      <point x="255.59333333333333" y="967.4266666666666"/>
      <point x="328.4" y="968.7666666666667" type="curve" smooth="yes"/>
      <point x="415.67866666666663" y="970.1066666666667"/>
      <point x="451.74" y="938.0106666666667"/>
      <point x="521.8666666666667" y="897.9" type="curve" smooth="yes"/>
      <point x="588.0626666666667" y="857.6999999999999"/>
      <point x="620.5253333333334" y="828.9666666666667"/>
      <point x="702.5333333333333" y="828.9666666666667" type="curve" smooth="yes"/>
      <point x="775.34" y="828.9666666666667"/>
      <point x="847.4546666666666" y="875.8626666666667"/>
      <point x="899.0" y="954.8333333333334" type="curve"/>
      <point x="899.0" y="832.7" type="line"/>
      <point x="847.4546666666666" y="764.36"/>
      <point x="776.34" y="724.7666666666667"/>
      <point x="703.5333333333333" y="724.7666666666667" type="curve" smooth="yes"/>
      <point x="621.5253333333334" y="724.7666666666667"/>
      <point x="587.6333333333334" y="753.9293333333333"/>
      <point x="522.8666666666667" y="792.7" type="curve" smooth="yes"/>
      <point x="452.74" y="834.24"/>
      <point x="415.67866666666663" y="864.6333333333333"/>
      <point x="328.4" y="864.6333333333333" type="curve" smooth="yes"/>
      <point x="255.59333333333333" y="864.6333333333333"/>
      <point x="177.54533333333333" y="817.7373333333334"/>
    </contour>
    <contour>
      <point x="125.0" y="328.1666666666667" type="curve"/>
      <point x="125.0" y="450.3" type="line"/>
      <point x="176.54533333333333" y="518.64"/>
      <point x="254.59333333333333" y="556.8933333333333"/>
      <point x="327.4" y="558.2333333333333" type="curve" smooth="yes"/>
      <point x="414.67866666666663" y="559.5733333333334"/>
      <point x="450.74" y="526.4106666666667"/>
      <point x="520.8666666666667" y="486.3" type="curve" smooth="yes"/>
      <point x="587.0626666666667" y="446.1"/>
      <point x="619.5253333333334" y="418.3666666666667"/>
      <point x="701.5333333333333" y="418.3666666666667" type="curve" smooth="yes"/>
      <point x="774.34" y="418.3666666666667"/>
      <point x="846.4546666666666" y="465.2626666666667"/>
      <point x="898.0" y="544.2333333333333" type="curve"/>
      <point x="898.0" y="421.1" type="line"/>
      <point x="846.4546666666666" y="354.18933333333337"/>
      <point x="775.34" y="314.23333333333335"/>
      <point x="702.5333333333333" y="314.23333333333335" type="curve" smooth="yes"/>
      <point x="620.5253333333334" y="314.23333333333335"/>
      <point x="588.0626666666667" y="341.9666666666667"/>
      <point x="521.8666666666667" y="382.1666666666667" type="curve" smooth="yes"/>
      <point x="451.74" y="422.27733333333333"/>
      <point x="414.67866666666663" y="453.03333333333336"/>
      <point x="327.4" y="453.03333333333336" type="curve" smooth="yes"/>
      <point x="254.59333333333333" y="453.03333333333336"/>
      <point x="176.54533333333333" y="407.13733333333334"/>
    </contour>
  </outline>
</glyph>
<glyph name="breve.cyr" format="2">
  <advance width="1006"/>
  <outline>
    <contour>
      <point x="502.81666666666666" y="1295.8166666666666" type="curve" smooth="yes"/>
      <point x="605.6840000000001" y="1295.8166666666666"/>
      <point x="673.5186666666666" y="1374.19"/>
      <point x="713.3166666666667" y="1502.3833333333334" type="curve"/>
      <point x="807.1333333333333" y="1448.5" type="line"/>
      <point x="765.6826666666667" y="1305.455"/>
      <point x="652.8296666666666" y="1197.2833333333333"/>
      <point x="502.81666666666666" y="1197.2833333333333" type="curve" smooth="yes"/>
      <point x="352.424" y="1197.2833333333333"/>
      <point x="239.95066666666668" y="1305.455"/>
      <point x="198.5" y="1448.5" type="curve"/>
      <point x="292.31666666666666" y="1502.3833333333334" type="line"/>
      <point x="332.11466666666666" y="1374.19"/>
      <point x="399.94933333333336" y="1295.8166666666666"/>
    </contour>
  </outline>
</glyph>
<glyph name="dieresiscombstack.case" format="2">
  <advance width="1024"/>
  <outline>
    <contour>
      <point x="189.65" y="1704.7833333333333" type="curve" smooth="yes"/>
      <point x="189.65" y="1764.0783333333334"/>
      <point x="222.32533333333333" y="1796.5666666666666"/>
      <point x="282.0" y="1796.5666666666666" type="curve" smooth="yes"/>
      <point x="338.615" y="1796.5666666666666"/>
      <point x="374.35" y="1759.6786666666667"/>
      <point x="374.35" y="1704.7833333333333" type="curve" smooth="yes"/>
      <point x="374.35" y="1646.8283333333334"/>
      <point x="343.0146666666667" y="1614.0"/>
      <point x="282.0" y="1614.0" type="curve" smooth="yes"/>
      <point x="225.385" y="1614.0"/>
      <point x="189.65" y="1649.888"/>
    </contour>
    <contour>
      <point x="649.65" y="1704.7833333333333" type="curve" smooth="yes"/>
      <point x="649.65" y="1764.0783333333334"/>
      <point x="682.3253333333333" y="1796.5666666666666"/>
      <point x="742.0" y="1796.5666666666666" type="curve" smooth="yes"/>
      <point x="798.615" y="1796.5666666666666"/>
      <point x="834.35" y="1759.6786666666667"/>
      <point x="834.35" y="1704.7833333333333" type="curve" smooth="yes"/>
      <point x="834.35" y="1646.8283333333334"/>
      <point x="803.0146666666666" y="1614.0"/>
      <point x="742.0" y="1614.0" type="curve" smooth="yes"/>
      <point x="685.385" y="1614.0"/>
      <point x="649.65" y="1649.888"/>
    </contour>
  </outline>
</glyph>
<glyph name="eight.prop" format="2">
  <advance width="1030"/>
  <outline>
    <contour>
      <point x="133.31666666666666" y="380.98333333333335" type="curve" smooth="yes"/>
      <point x="133.31666666666666" y="565.278"/>
      <point x="231.43766666666662" y="688.6953333333333"/>
      <point x="376.85" y="746.5833333333334" type="curve"/>
      <point x="376.85" y="750.5833333333334" type="line"/>
      <point x="252.38633333333337" y="803.3793333333333"/>
      <point x="172.91666666666666" y="929.7649999999999"/>
      <point x="172.91666666666666" y="1092.0166666666667" type="curve" smooth="yes"/>
      <point x="172.91666666666666" y="1330.3356666666666"/>
      <point x="314.91533333333325" y="1486.0"/>
      <point x="515.0666666666667" y="1486.0" type="curve" smooth="yes"/>
      <point x="715.218" y="1486.0"/>
      <point x="857.2166666666667" y="1330.3356666666666"/>
      <point x="857.2166666666667" y="1092.0166666666667" type="curve" smooth="yes"/>
      <point x="857.2166666666667" y="929.7649999999999"/>
      <point x="778.2383333333333" y="804.3396666666667"/>
      <point x="653.2833333333333" y="750.5833333333334" type="curve"/>
      <point x="653.2833333333333" y="746.5833333333334" type="line"/>
      <point x="803.4973333333334" y="694.4573333333333"/>
      <point x="896.8166666666666" y="567.6676666666666"/>
      <point x="896.8166666666666" y="380.98333333333335" type="curve" smooth="yes"/>
      <point x="896.8166666666666" y="118.54433333333333"/>
      <point x="737.73" y="-30.0"/>
      <point x="515.0666666666667" y="-30.0" type="curve" smooth="yes"/>
      <point x="292.4033333333333" y="-30.0"/>
      <point x="133.31666666666666" y="118.54433333333333"/>
    </contour>
    <contour>
      <point x="242.55" y="384.9" type="curve" smooth="yes"/>
      <point x="242.55" y="197.70199999999997"/>
      <point x="341.5813333333333" y="69.38966666666666"/>
      <point x="515.0666666666667" y="70.35" type="curve" smooth="yes"/>
      <point x="687.1226666666666" y="70.35"/>
      <point x="786.5166666666667" y="188.09866666666667"/>
      <point x="786.5166666666667" y="384.9" type="curve" smooth="yes"/>
      <point x="786.5166666666667" y="569.6859999999999"/>
      <point x="687.1226666666666" y="694.65"/>
      <point x="515.0666666666667" y="694.65" type="curve" smooth="yes"/>
      <point x="341.5813333333333" y="693.6896666666667"/>
      <point x="242.55" y="569.6859999999999"/>
    </contour>
    <contour>
      <point x="279.5833333333333" y="1088.1" type="curve" smooth="yes"/>
      <point x="279.5833333333333" y="916.714"/>
      <point x="365.0536666666667" y="796.3103333333333"/>
      <point x="515.0666666666667" y="795.35" type="curve" smooth="yes"/>
      <point x="663.6503333333334" y="795.35"/>
      <point x="750.55" y="916.714"/>
      <point x="750.55" y="1088.1" type="curve" smooth="yes"/>
      <point x="750.55" y="1263.3273333333332"/>
      <point x="663.6503333333334" y="1385.65"/>
      <point x="515.0666666666667" y="1385.65" type="curve" smooth="yes"/>
      <point x="365.0536666666667" y="1386.610333333333"/>
      <point x="279.5833333333333" y="1263.3273333333332"/>
    </contour>
  </outline>
</glyph>
<glyph name="hard.bgr" format="2">
  <advance width="1058"/>
  <outline>
    <contour>
      <point x="263.8833333333333" y="334.51666666666665" type="curve" smooth="yes"/>
      <point x="263.8833333333333" y="951.4333333333334" type="line"/>
      <point x="44.333333333333336" y="951.4333333333334" type="line"/>
      <point x="44.333333333333336" y="1052.0" type="line"/>
      <point x="375.4166666666667" y="1052.0" type="line"/>
      <point x="375.4166666666667" y="692.2" type="line"/>
      <point x="583.2666666666667" y="692.2" type="line" smooth="yes"/>
      <point x="854.2370000000001" y="692.2"/>
      <point x="973.4833333333333" y="551.7753333333333"/>
      <point x="973.4833333333333" y="334.51666666666665" type="curve" smooth="yes"/>
      <point x="973.4833333333333" y="112.88066666666666"/>
      <point x="846.4363333333333" y="-30.0"/>
      <point x="620.2666666666667" y="-30.0" type="curve" smooth="yes"/>
      <point x="391.9753333333333" y="-30.0"/>
      <point x="263.8833333333333" y="112.88066666666666"/>
    </contour>
    <contour>
      <point x="375.4166666666667" y="334.51666666666665" type="line" smooth="yes"/>
      <point x="375.4166666666667" y="182.65"/>
      <point x="440.5503333333333" y="72.83333333333334"/>
      <point x="620.2666666666667" y="72.83333333333334" type="curve" smooth="yes"/>
      <point x="794.9803333333333" y="72.83333333333334"/>
      <point x="859.0833333333334" y="181.68966666666665"/>
      <point x="859.0833333333334" y="334.51666666666665" type="curve" smooth="yes"/>
      <point x="859.0833333333334" y="500.4666915888047"/>
      <point x="782.3906666666667" y="591.6333333333333"/>
      <point x="583.2666666666667" y="591.6333333333333" type="curve" smooth="yes"/>
      <point x="375.4166666666667" y="591.6333333333333" type="line"/>
    </contour>
  </outline>
</glyph>
<glyph name="soft.bgr" format="2">
  <advance width="943"/>
  <outline>
    <contour>
      <point x="148.0" y="334.51666666666665" type="curve" smooth="yes"/>
      <point x="148.0" y="1052.0" type="line"/>
      <point x="259.5333333333333" y="1052.0" type="line"/>
      <point x="259.5333333333333" y="692.2" type="line"/>
      <point x="467.3833333333333" y="692.2" type="line" smooth="yes"/>
      <point x="737.7451386138006" y="692.2"/>
      <point x="857.6" y="551.7753333333333"/>
      <point x="857.6" y="334.51666666666665" type="curve" smooth="yes"/>
      <point x="857.6" y="112.88066666666666"/>
      <point x="731.1373888889366" y="-30.0"/>
      <point x="504.3833333333333" y="-30.0" type="curve" smooth="yes"/>
      <point x="275.50898245620056" y="-30.0"/>
      <point x="148.0" y="112.88066666666666"/>
    </contour>
    <contour>
      <point x="259.5333333333333" y="334.51666666666665" type="line" smooth="yes"/>
      <point x="259.5333333333333" y="182.65"/>
      <point x="324.9924917492075" y="72.83333333333334"/>
      <point x="504.3833333333333" y="72.83333333333334" type="curve" smooth="yes"/>
      <point x="678.7639514563648" y="72.83333333333334"/>
      <point x="743.2" y="181.68966666666665"/>
      <point x="743.2" y="334.51666666666665" type="curve" smooth="yes"/>
      <point x="743.2" y="500.4666915888047"/>
      <point x="666.1088908555242" y="591.6333333333333"/>
      <point x="467.3833333333333" y="591.6333333333333" type="curve" smooth="yes"/>
      <point x="259.5333333333333" y="591.6333333333333" type="line"/>
    </contour>
  </outline>
</glyph>
